<svg width="24" height="24" viewBox="0 0 24 24" fill="none" xmlns="http://www.w3.org/2000/svg">
<path fill-rule="evenodd" clip-rule="evenodd" d="M11.9999 9.60456C10.6699 9.60456 9.58887 10.6795 9.58887 12.0008C9.58887 13.3212 10.6699 14.3951 11.9999 14.3951C13.3299 14.3951 14.4119 13.3212 14.4119 12.0008C14.4119 10.6795 13.3299 9.60456 11.9999 9.60456M11.9999 15.8854C9.84287 15.8854 8.08887 14.1428 8.08887 12.0008C8.08887 9.85791 9.84287 8.11435 11.9999 8.11435C14.1569 8.11435 15.9119 9.85791 15.9119 12.0008C15.9119 14.1428 14.1569 15.8854 11.9999 15.8854" fill="currentColor"/>
<mask id="mask0_13_148" style="mask-type:alpha" maskUnits="userSpaceOnUse" x="2" y="4" width="20" height="17">
<path fill-rule="evenodd" clip-rule="evenodd" d="M2 4.00024H21.9998V20.0002H2V4.00024Z" fill="white"/>
</mask>
<g mask="url(#mask0_13_148)">
<path fill-rule="evenodd" clip-rule="evenodd" d="M3.56934 12.0001C5.42934 16.0823 8.56234 18.5093 11.9993 18.5103C15.4363 18.5093 18.5693 16.0823 20.4293 12.0001C18.5693 7.91883 15.4363 5.49176 11.9993 5.49077C8.56334 5.49176 5.42934 7.91883 3.56934 12.0001V12.0001ZM12.0017 20.0005H11.9978H11.9967C7.86075 19.9976 4.14675 17.1175 2.06075 12.2941C1.97975 12.1064 1.97975 11.8937 2.06075 11.706C4.14675 6.88363 7.86175 4.00353 11.9967 4.00055C11.9987 3.99955 11.9988 3.99955 11.9998 4.00055C12.0018 3.99955 12.0018 3.99955 12.0028 4.00055C16.1388 4.00353 19.8527 6.88363 21.9387 11.706C22.0207 11.8937 22.0207 12.1064 21.9387 12.2941C19.8537 17.1175 16.1388 19.9976 12.0028 20.0005H12.0017Z" fill="currentColor"/>
</g>
</svg>
