<svg width="24" height="24" viewBox="0 0 24 24" fill="none" xmlns="http://www.w3.org/2000/svg">
<path fill-rule="evenodd" clip-rule="evenodd" d="M9.80332 14.7611C9.61497 14.7611 9.42662 14.6935 9.2834 14.5574C8.55942 13.8747 8.16016 12.9669 8.16016 12.0017C8.16016 10.0009 9.88278 8.37337 11.9998 8.37337C13.018 8.37337 14.0069 8.76149 14.7122 9.43861C14.9967 9.7128 14.9938 10.1519 14.7034 10.4205C14.414 10.691 13.949 10.6863 13.6635 10.414C13.2329 9.99995 12.6266 9.76282 11.9998 9.76282C10.6941 9.76282 9.63165 10.7669 9.63165 12.0017C9.63165 12.5954 9.87788 13.1549 10.3232 13.5755C10.6107 13.8469 10.6107 14.2859 10.3242 14.5574C10.18 14.6935 9.99167 14.7611 9.80332 14.7611" fill="currentColor"/>
<path fill-rule="evenodd" clip-rule="evenodd" d="M12.5563 15.5707C12.208 15.5707 11.898 15.3355 11.8333 15.0001C11.7607 14.6231 12.0255 14.2609 12.4258 14.1924C13.3872 14.0275 14.1484 13.3069 14.3211 12.3982C14.3937 12.0211 14.7762 11.7729 15.1755 11.8377C15.5758 11.9054 15.8416 12.2666 15.77 12.6445C15.4885 14.1201 14.2504 15.291 12.6887 15.5596C12.6445 15.567 12.5994 15.5707 12.5563 15.5707" fill="currentColor"/>
<mask id="mask0_13_159" style="mask-type:alpha" maskUnits="userSpaceOnUse" x="2" y="4" width="17" height="14">
<path fill-rule="evenodd" clip-rule="evenodd" d="M2 4H18.0855V17.8901H2V4Z" fill="white"/>
</mask>
<g mask="url(#mask0_13_159)">
<path fill-rule="evenodd" clip-rule="evenodd" d="M6.65429 17.8901C6.4923 17.8901 6.32931 17.8379 6.19131 17.7324C4.50039 16.424 3.07145 14.5058 2.0615 12.1865C1.9795 11.9993 1.9795 11.7885 2.0615 11.6023C3.08245 9.27315 4.52039 7.34503 6.22031 6.02776C9.68616 3.32523 14.2999 3.31637 17.8008 6.04746C18.1258 6.30067 18.1808 6.7657 17.9238 7.08591C17.6658 7.40414 17.1958 7.4603 16.8698 7.20611C13.904 4.89276 10.0831 4.90064 7.14927 7.18837C5.71333 8.3017 4.48039 9.92341 3.57043 11.8959C4.47139 13.8565 5.69333 15.4684 7.11827 16.5699C7.44426 16.8221 7.50025 17.2871 7.24427 17.6073C7.09627 17.7925 6.87628 17.8901 6.65429 17.8901" fill="currentColor"/>
</g>
<mask id="mask1_13_159" style="mask-type:alpha" maskUnits="userSpaceOnUse" x="9" y="8" width="14" height="12">
<path fill-rule="evenodd" clip-rule="evenodd" d="M9 8H22.0007V20H9V8Z" fill="white"/>
</mask>
<g mask="url(#mask1_13_159)">
<path fill-rule="evenodd" clip-rule="evenodd" d="M12.213 20C11.2959 20 10.3836 19.8473 9.50273 19.547C9.11807 19.4155 8.90959 18.9886 9.03781 18.5939C9.16603 18.1982 9.58006 17.9883 9.96668 18.1169C10.6978 18.367 11.4534 18.4935 12.213 18.4935C15.5682 18.4935 18.6348 16.0409 20.4641 11.9121C20.0178 10.9088 19.498 9.99984 18.9166 9.20641C18.6729 8.87398 18.7375 8.40094 19.0615 8.15086C19.3845 7.90078 19.8455 7.96907 20.0892 8.3005C20.7979 9.26567 21.4204 10.3815 21.9401 11.6128C22.0213 11.8036 22.0213 12.0206 21.9401 12.2104C19.8886 17.0884 16.2524 20 12.213 20" fill="currentColor"/>
</g>
<mask id="mask2_13_159" style="mask-type:alpha" maskUnits="userSpaceOnUse" x="3" y="4" width="18" height="17">
<path fill-rule="evenodd" clip-rule="evenodd" d="M3.52734 4.00049H20.4726V20.0005H3.52734V4.00049Z" fill="white"/>
</mask>
<g mask="url(#mask2_13_159)">
<path fill-rule="evenodd" clip-rule="evenodd" d="M4.26284 20.0004C4.07449 20.0004 3.88614 19.9328 3.74292 19.7966C3.45549 19.5252 3.45549 19.0862 3.74292 18.8148L19.2171 4.2033C19.5046 3.93189 19.9695 3.93189 20.257 4.2033C20.5444 4.4747 20.5444 4.91469 20.257 5.1861L4.78277 19.7966C4.63955 19.9328 4.4512 20.0004 4.26284 20.0004" fill="currentColor"/>
</g>
</svg>
